ScienceGothic-LtExpCtrS.ufo
<glyph name="asterisk" format="2">
  <advance width="1424"/>
  <unicode hex="002A"/>
  <outline>
    <contour>
      <point x="710" y="778" type="line"/>
      <point x="763" y="1085" type="line"/>
      <point x="369" y="892" type="line"/>
      <point x="357" y="920" type="line"/>
      <point x="758" y="1114" type="line"/>
      <point x="427" y="1308" type="line"/>
      <point x="446" y="1332" type="line"/>
      <point x="773" y="1140" type="line"/>
      <point x="827" y="1448" type="line"/>
      <point x="863" y="1448" type="line"/>
      <point x="809" y="1138" type="line"/>
      <point x="1206" y="1332" type="line"/>
      <point x="1219" y="1305" type="line"/>
      <point x="823" y="1113" type="line"/>
      <point x="1150" y="921" type="line"/>
      <point x="1130" y="897" type="line"/>
      <point x="801" y="1090" type="line"/>
      <point x="746" y="778" type="line"/>
    </contour>
  </outline>
</glyph>
<glyph name="slash" format="2">
  <advance width="1212.93"/>
  <unicode hex="002F"/>
  <outline>
    <contour>
      <point x="1142.52" y="1430" type="line"/>
      <point x="1187.52" y="1430" type="line"/>
      <point x="63.5173" y="-100" type="line"/>
      <point x="18.5173" y="-100" type="line"/>
    </contour>
  </outline>
</glyph>
<glyph name="semicolon" format="2">
  <advance width="725"/>
  <unicode hex="003B"/>
  <outline>
    <contour>
      <point x="198" y="22" type="line"/>
      <point x="205" y="64" type="line"/>
      <point x="207" y="73"/>
      <point x="210" y="84"/>
      <point x="216" y="89"/>
      <point x="227" y="90"/>
      <point x="236" y="90" type="qcurve" smooth="yes"/>
      <point x="279" y="90" type="line" smooth="yes"/>
      <point x="289" y="90"/>
      <point x="299" y="89"/>
      <point x="303" y="84"/>
      <point x="302" y="73"/>
      <point x="300" y="64" type="qcurve"/>
      <point x="293" y="22" type="line"/>
      <point x="291" y="13"/>
      <point x="288" y="2"/>
      <point x="282" y="-3"/>
      <point x="272" y="-4"/>
      <point x="262" y="-4" type="qcurve" smooth="yes"/>
      <point x="219" y="-4" type="line" smooth="yes"/>
      <point x="210" y="-4"/>
      <point x="200" y="-3"/>
      <point x="196" y="2"/>
      <point x="196" y="13"/>
      <point x="198" y="22" type="qcurve"/>
    </contour>
    <contour>
      <point x="357" y="936" type="line"/>
      <point x="365" y="978" type="line"/>
      <point x="367" y="987"/>
      <point x="370" y="998"/>
      <point x="375" y="1003"/>
      <point x="386" y="1004"/>
      <point x="395" y="1004" type="qcurve" smooth="yes"/>
      <point x="438" y="1004" type="line" smooth="yes"/>
      <point x="448" y="1004"/>
      <point x="458" y="1003"/>
      <point x="462" y="998"/>
      <point x="462" y="987"/>
      <point x="460" y="978" type="qcurve"/>
      <point x="452" y="936" type="line"/>
      <point x="451" y="927"/>
      <point x="448" y="916"/>
      <point x="442" y="911"/>
      <point x="432" y="910"/>
      <point x="422" y="910" type="qcurve" smooth="yes"/>
      <point x="378" y="910" type="line" smooth="yes"/>
      <point x="369" y="910"/>
      <point x="359" y="911"/>
      <point x="355" y="916"/>
      <point x="356" y="927"/>
      <point x="357" y="936" type="qcurve"/>
    </contour>
    <contour>
      <point x="196" y="-108" type="line"/>
      <point x="234" y="-2" type="line"/>
      <point x="287" y="2" type="line"/>
      <point x="219" y="-114" type="line"/>
      <point x="196" y="-108" type="line"/>
    </contour>
  </outline>
</glyph>
<glyph name="E" format="2">
  <advance width="2242.51"/>
  <unicode hex="0045"/>
  <anchor x="1445" y="1550" name="top"/>
  <anchor x="1148" y="-150" name="bottom"/>
  <anchor x="2107" y="0" name="ogonek"/>
  <outline>
    <contour>
      <point x="229.858" y="0" type="line"/>
      <point x="473.858" y="1400" type="line"/>
      <point x="2327.86" y="1400" type="line"/>
      <point x="2321.86" y="1364" type="line"/>
      <point x="507.858" y="1364" type="line"/>
      <point x="397.858" y="736" type="line"/>
      <point x="1575.86" y="736" type="line"/>
      <point x="1569.86" y="700" type="line"/>
      <point x="391.858" y="700" type="line"/>
      <point x="275.858" y="36" type="line"/>
      <point x="2123.86" y="36" type="line"/>
      <point x="2117.86" y="0" type="line"/>
    </contour>
  </outline>
</glyph>
<glyph name="S" format="2">
  <advance width="2587"/>
  <unicode hex="0053"/>
  <anchor x="1446" y="1550" name="top"/>
  <anchor x="1147" y="-150" name="bottom"/>
  <outline>
    <contour>
      <point x="252" y="386" type="line"/>
      <point x="294" y="396" type="line"/>
      <point x="276" y="298" type="line" smooth="yes"/>
      <point x="265" y="234"/>
      <point x="282" y="136"/>
      <point x="337" y="70"/>
      <point x="429" y="36"/>
      <point x="493" y="36" type="qcurve" smooth="yes"/>
      <point x="1865" y="36" type="line" smooth="yes"/>
      <point x="1929" y="36"/>
      <point x="2032" y="70"/>
      <point x="2110" y="136"/>
      <point x="2161" y="234"/>
      <point x="2172" y="298" type="qcurve" smooth="yes"/>
      <point x="2195" y="428" type="line" smooth="yes"/>
      <point x="2206" y="492"/>
      <point x="2189" y="590"/>
      <point x="2135" y="656"/>
      <point x="2043" y="690"/>
      <point x="1979" y="690" type="qcurve" smooth="yes"/>
      <point x="627" y="690" type="line" smooth="yes"/>
      <point x="555" y="690"/>
      <point x="450" y="729"/>
      <point x="387" y="806"/>
      <point x="367" y="918"/>
      <point x="379" y="990" type="qcurve" smooth="yes"/>
      <point x="398" y="1100" type="line" smooth="yes"/>
      <point x="411" y="1172"/>
      <point x="470" y="1284"/>
      <point x="560" y="1361"/>
      <point x="679" y="1400"/>
      <point x="751" y="1400" type="qcurve" smooth="yes"/>
      <point x="2085" y="1400" type="line" smooth="yes"/>
      <point x="2157" y="1400"/>
      <point x="2262" y="1361"/>
      <point x="2325" y="1284"/>
      <point x="2345" y="1172"/>
      <point x="2332" y="1100" type="qcurve" smooth="yes"/>
      <point x="2319" y="1022" type="line"/>
      <point x="2277" y="1012" type="line"/>
      <point x="2293" y="1102" type="line" smooth="yes"/>
      <point x="2304" y="1166"/>
      <point x="2287" y="1264"/>
      <point x="2232" y="1330"/>
      <point x="2140" y="1364"/>
      <point x="2076" y="1364" type="qcurve" smooth="yes"/>
      <point x="746" y="1364" type="line" smooth="yes"/>
      <point x="682" y="1364"/>
      <point x="579" y="1330"/>
      <point x="501" y="1264"/>
      <point x="450" y="1166"/>
      <point x="439" y="1102" type="qcurve" smooth="yes"/>
      <point x="419" y="988" type="line" smooth="yes"/>
      <point x="408" y="924"/>
      <point x="425" y="826"/>
      <point x="479" y="760"/>
      <point x="571" y="726"/>
      <point x="635" y="726" type="qcurve" smooth="yes"/>
      <point x="1987" y="726" type="line" smooth="yes"/>
      <point x="2059" y="726"/>
      <point x="2164" y="687"/>
      <point x="2227" y="610"/>
      <point x="2247" y="498"/>
      <point x="2235" y="426" type="qcurve" smooth="yes"/>
      <point x="2213" y="300" type="line" smooth="yes"/>
      <point x="2200" y="228"/>
      <point x="2141" y="116"/>
      <point x="2051" y="39"/>
      <point x="1932" y="0"/>
      <point x="1860" y="0" type="qcurve" smooth="yes"/>
      <point x="484" y="0" type="line" smooth="yes"/>
      <point x="412" y="0"/>
      <point x="307" y="39"/>
      <point x="244" y="116"/>
      <point x="224" y="228"/>
      <point x="237" y="300" type="qcurve" smooth="yes"/>
    </contour>
  </outline>
</glyph>
<glyph name="k" format="2">
  <advance width="1797" height="1448"/>
  <unicode hex="006B"/>
  <anchor x="1306" y="1598" name="top"/>
  <anchor x="791" y="-150" name="bottom"/>
  <anchor x="231" y="724" name="left"/>
  <outline>
    <contour>
      <point x="205" y="0" type="line"/>
      <point x="241" y="0" type="line"/>
      <point x="332" y="522" type="line"/>
      <point x="319" y="515" type="line"/>
      <point x="1569" y="0" type="line"/>
      <point x="1661" y="0" type="line"/>
      <point x="373" y="530" type="line"/>
      <point x="373" y="521" type="line"/>
      <point x="1684" y="1000" type="line"/>
      <point x="1604" y="1000" type="line"/>
      <point x="324" y="533" type="line"/>
      <point x="333" y="525" type="line"/>
      <point x="494" y="1448" type="line"/>
      <point x="458" y="1448" type="line"/>
    </contour>
  </outline>
</glyph>
<glyph name="l" format="2">
  <advance width="687.464" height="1448"/>
  <unicode hex="006C"/>
  <anchor x="502" y="1598" name="top"/>
  <anchor x="197" y="-150" name="bottom"/>
  <anchor x="494" y="1448" name="right"/>
  <anchor x="689" y="700" name="eldot"/>
  <outline>
    <contour>
      <point x="205.322" y="0" type="line"/>
      <point x="241.322" y="0" type="line"/>
      <point x="494.322" y="1448" type="line"/>
      <point x="458.322" y="1448" type="line"/>
    </contour>
  </outline>
</glyph>
<glyph name="n" format="2">
  <advance width="2028.47" height="1448"/>
  <unicode hex="006E"/>
  <anchor x="1107" y="1150" name="top"/>
  <anchor x="880" y="-150" name="bottom"/>
  <anchor x="195" y="500" name="left"/>
  <outline>
    <contour>
      <point x="204.327" y="0" type="line"/>
      <point x="379.327" y="1000" type="line"/>
      <point x="415.327" y="1000" type="line"/>
      <point x="410.327" y="972" type="line"/>
      <point x="423.327" y="986"/>
      <point x="464.327" y="1000"/>
      <point x="491.327" y="1000" type="qcurve" smooth="yes"/>
      <point x="1611.33" y="1000" type="line" smooth="yes"/>
      <point x="1650.33" y="1000"/>
      <point x="1707.33" y="979"/>
      <point x="1741.33" y="938"/>
      <point x="1751.33" y="877"/>
      <point x="1744.33" y="838" type="qcurve" smooth="yes"/>
      <point x="1598.33" y="0" type="line"/>
      <point x="1562.33" y="0" type="line"/>
      <point x="1707.33" y="832" type="line" smooth="yes"/>
      <point x="1719.33" y="898"/>
      <point x="1672.33" y="968"/>
      <point x="1605.33" y="968" type="qcurve" smooth="yes"/>
      <point x="409.327" y="968" type="line"/>
      <point x="240.327" y="0" type="line"/>
    </contour>
  </outline>
  <guideline angle="0" x="0" y="988"/>
  <guideline angle="0" x="0" y="870"/>
</glyph>
<glyph name="y" format="2">
  <advance width="1719"/>
  <unicode hex="0079"/>
  <anchor x="1042" y="1150" name="top"/>
  <anchor x="1044" y="-350" name="bottom"/>
  <outline>
    <contour>
      <point x="-140" y="-428" type="line"/>
      <point x="177" y="-428" type="line" smooth="yes"/>
      <point x="227" y="-428"/>
      <point x="303" y="-418"/>
      <point x="367" y="-391"/>
      <point x="429" y="-343"/>
      <point x="465" y="-306" type="qcurve" smooth="yes"/>
      <point x="1759" y="1000" type="line"/>
      <point x="1717" y="1000" type="line"/>
      <point x="759" y="32" type="line"/>
      <point x="119" y="1000" type="line"/>
      <point x="72" y="1000" type="line"/>
      <point x="729" y="3" type="line"/>
      <point x="440" y="-289" type="line" smooth="yes"/>
      <point x="407" y="-322"/>
      <point x="354" y="-364"/>
      <point x="299" y="-387"/>
      <point x="233" y="-396"/>
      <point x="188" y="-396" type="qcurve" smooth="yes"/>
      <point x="-141" y="-396" type="line"/>
    </contour>
  </outline>
</glyph>
<glyph name="currency" format="2">
  <advance width="2452" height="1448"/>
  <unicode hex="00A4"/>
  <outline>
    <contour>
      <point x="104" y="52" type="line"/>
      <point x="411" y="229" type="line"/>
      <point x="428" y="215"/>
      <point x="479" y="200"/>
      <point x="512" y="200" type="qcurve" smooth="yes"/>
      <point x="1771" y="200" type="line" smooth="yes"/>
      <point x="1803" y="200"/>
      <point x="1858" y="215"/>
      <point x="1881" y="229" type="qcurve"/>
      <point x="2126" y="52" type="line"/>
      <point x="2152" y="80" type="line"/>
      <point x="1911" y="254" type="line"/>
      <point x="1930" y="274"/>
      <point x="1954" y="328"/>
      <point x="1960" y="362" type="qcurve" smooth="yes"/>
      <point x="2078" y="1038" type="line" smooth="yes"/>
      <point x="2084" y="1072"/>
      <point x="2078" y="1126"/>
      <point x="2066" y="1146" type="qcurve"/>
      <point x="2368" y="1320" type="line"/>
      <point x="2352" y="1348" type="line"/>
      <point x="2045" y="1171" type="line"/>
      <point x="2027" y="1185"/>
      <point x="1978" y="1200"/>
      <point x="1945" y="1200" type="qcurve" smooth="yes"/>
      <point x="686" y="1200" type="line" smooth="yes"/>
      <point x="653" y="1200"/>
      <point x="598" y="1185"/>
      <point x="576" y="1171" type="qcurve"/>
      <point x="330" y="1348" type="line"/>
      <point x="304" y="1320" type="line"/>
      <point x="546" y="1146" type="line"/>
      <point x="527" y="1126"/>
      <point x="502" y="1072"/>
      <point x="496" y="1038" type="qcurve" smooth="yes"/>
      <point x="378" y="362" type="line" smooth="yes"/>
      <point x="372" y="328"/>
      <point x="378" y="274"/>
      <point x="390" y="254" type="qcurve"/>
      <point x="88" y="80" type="line"/>
    </contour>
    <contour>
      <point x="517" y="232" type="line" smooth="yes"/>
      <point x="450" y="232"/>
      <point x="403" y="302"/>
      <point x="415" y="368" type="qcurve" smooth="yes"/>
      <point x="531" y="1032" type="line" smooth="yes"/>
      <point x="542" y="1098"/>
      <point x="614" y="1168"/>
      <point x="681" y="1168" type="qcurve" smooth="yes"/>
      <point x="1940" y="1168" type="line" smooth="yes"/>
      <point x="2006" y="1168"/>
      <point x="2052" y="1098"/>
      <point x="2041" y="1032" type="qcurve" smooth="yes"/>
      <point x="1925" y="368" type="line" smooth="yes"/>
      <point x="1913" y="302"/>
      <point x="1842" y="232"/>
      <point x="1776" y="232" type="qcurve" smooth="yes"/>
    </contour>
  </outline>
</glyph>
<glyph name="dcroat" format="2">
  <advance width="2104"/>
  <unicode hex="0111"/>
  <anchor x="1264" y="1598" name="top"/>
  <outline>
    <contour>
      <point x="335" y="0" type="line" smooth="yes"/>
      <point x="295" y="0"/>
      <point x="239" y="21"/>
      <point x="205" y="62"/>
      <point x="195" y="123"/>
      <point x="202" y="162" type="qcurve" smooth="yes"/>
      <point x="319" y="838" type="line" smooth="yes"/>
      <point x="326" y="877"/>
      <point x="357" y="938"/>
      <point x="405" y="979"/>
      <point x="468" y="1000"/>
      <point x="508" y="1000" type="qcurve" smooth="yes"/>
      <point x="1716" y="1000" type="line" smooth="yes"/>
      <point x="1741" y="1000"/>
      <point x="1769" y="992"/>
      <point x="1775" y="984" type="qcurve"/>
      <point x="1811" y="1188" type="line"/>
      <point x="1174" y="1188" type="line"/>
      <point x="1178" y="1220" type="line"/>
      <point x="1816" y="1220" type="line"/>
      <point x="1856" y="1448" type="line"/>
      <point x="1892" y="1448" type="line"/>
      <point x="1852" y="1220" type="line"/>
      <point x="2107" y="1220" type="line"/>
      <point x="2103" y="1188" type="line"/>
      <point x="1847" y="1188" type="line"/>
      <point x="1641" y="0" type="line"/>
      <point x="1605" y="0" type="line"/>
      <point x="1608" y="16" type="line"/>
      <point x="1600" y="8"/>
      <point x="1570" y="0"/>
      <point x="1545" y="0" type="qcurve" smooth="yes"/>
    </contour>
    <contour>
      <point x="1772" y="968" type="line"/>
      <point x="502" y="968" type="line" smooth="yes"/>
      <point x="435" y="968"/>
      <point x="365" y="899"/>
      <point x="354" y="832" type="qcurve" smooth="yes"/>
      <point x="239" y="168" type="line" smooth="yes"/>
      <point x="227" y="101"/>
      <point x="274" y="32"/>
      <point x="341" y="32" type="qcurve" smooth="yes"/>
      <point x="1611" y="32" type="line"/>
    </contour>
  </outline>
  <guideline angle="0" x="0" y="988"/>
  <guideline angle="0" x="0" y="42"/>
</glyph>
<glyph name="Tbar" format="2">
  <advance width="2102"/>
  <unicode hex="0166"/>
  <anchor x="1205" y="1550" name="top"/>
  <anchor x="908" y="-150" name="bottom"/>
  <outline>
    <contour>
      <point x="2223.86" y="1400" type="line"/>
      <point x="2217.86" y="1364" type="line"/>
      <point x="1191.86" y="1364" type="line"/>
      <point x="1083.86" y="744" type="line"/>
      <point x="1481.86" y="744" type="line"/>
      <point x="1475.86" y="712" type="line"/>
      <point x="1077.86" y="712" type="line"/>
      <point x="953.858" y="0" type="line"/>
      <point x="913.858" y="0" type="line"/>
      <point x="1037.86" y="712" type="line"/>
      <point x="639.858" y="712" type="line"/>
      <point x="645.858" y="744" type="line"/>
      <point x="1043.86" y="744" type="line"/>
      <point x="1151.86" y="1364" type="line"/>
      <point x="125.858" y="1364" type="line"/>
      <point x="131.858" y="1400" type="line"/>
    </contour>
  </outline>
</glyph>
<glyph name="uni041B" format="2">
  <advance width="2470"/>
  <unicode hex="041B"/>
  <anchor x="1383" y="1550" name="top"/>
  <anchor x="1090" y="-150" name="bottom"/>
  <anchor x="2350" y="0" name="ogonek"/>
  <outline>
    <contour>
      <point x="-120" y="0" type="line"/>
      <point x="1347" y="1400" type="line"/>
      <point x="1365" y="1400" type="line"/>
      <point x="2350" y="0" type="line"/>
      <point x="2299" y="0" type="line"/>
      <point x="1352" y="1354" type="line"/>
      <point x="-67" y="0" type="line"/>
    </contour>
  </outline>
</glyph>
<glyph name="uni0428" format="2">
  <advance width="3516"/>
  <unicode hex="0428"/>
  <outline>
    <contour>
      <point x="230" y="0" type="line"/>
      <point x="3046" y="0" type="line"/>
      <point x="3290" y="1400" type="line"/>
      <point x="3250" y="1400" type="line"/>
      <point x="3012" y="36" type="line"/>
      <point x="1664" y="36" type="line"/>
      <point x="1902" y="1400" type="line"/>
      <point x="1862" y="1400" type="line"/>
      <point x="1624" y="36" type="line"/>
      <point x="276" y="36" type="line"/>
      <point x="514" y="1400" type="line"/>
      <point x="474" y="1400" type="line"/>
    </contour>
  </outline>
</glyph>
<glyph name="uni0438" format="2">
  <advance width="2028.47"/>
  <unicode hex="0438"/>
  <anchor x="1102" y="1150" name="top"/>
  <outline>
    <contour>
      <point x="204.327" y="0" type="line"/>
      <point x="238.327" y="0" type="line"/>
      <point x="1730.33" y="960" type="line"/>
      <point x="1562.33" y="0" type="line"/>
      <point x="1598.33" y="0" type="line"/>
      <point x="1773.33" y="1000" type="line"/>
      <point x="1739.33" y="1000" type="line"/>
      <point x="247.327" y="40" type="line"/>
      <point x="415.327" y="1000" type="line"/>
      <point x="379.327" y="1000" type="line"/>
    </contour>
  </outline>
</glyph>
<glyph name="uni0454" format="2">
  <advance width="1955"/>
  <unicode hex="0454"/>
  <outline>
    <contour>
      <point x="335" y="0" type="line"/>
      <point x="1450" y="0" type="line" smooth="yes"/>
      <point x="1489" y="0"/>
      <point x="1553" y="21"/>
      <point x="1601" y="62"/>
      <point x="1632" y="123"/>
      <point x="1639" y="162" type="qcurve" smooth="yes"/>
      <point x="1662" y="290" type="line"/>
      <point x="1627" y="300" type="line"/>
      <point x="1604" y="168" type="line" smooth="yes"/>
      <point x="1593" y="102"/>
      <point x="1511" y="32"/>
      <point x="1445" y="32" type="qcurve" smooth="yes"/>
      <point x="351" y="32" type="line" smooth="yes"/>
      <point x="285" y="32"/>
      <point x="227" y="102"/>
      <point x="238" y="168" type="qcurve" smooth="yes"/>
      <point x="296" y="497" type="line"/>
      <point x="1219" y="497" type="line"/>
      <point x="1224" y="529" type="line"/>
      <point x="301" y="529" type="line"/>
      <point x="354" y="832" type="line" smooth="yes"/>
      <point x="366" y="898"/>
      <point x="448" y="968"/>
      <point x="514" y="968" type="qcurve" smooth="yes"/>
      <point x="1604" y="968" type="line" smooth="yes"/>
      <point x="1670" y="968"/>
      <point x="1728" y="898"/>
      <point x="1716" y="832" type="qcurve" smooth="yes"/>
      <point x="1697" y="722" type="line"/>
      <point x="1734" y="730" type="line"/>
      <point x="1753" y="838" type="line" smooth="yes"/>
      <point x="1760" y="877"/>
      <point x="1750" y="938"/>
      <point x="1717" y="979"/>
      <point x="1660" y="1000"/>
      <point x="1621" y="1000" type="qcurve" smooth="yes"/>
      <point x="510" y="1000" type="line" smooth="yes"/>
      <point x="471" y="1000"/>
      <point x="406" y="979"/>
      <point x="358" y="938"/>
      <point x="326" y="877"/>
      <point x="319" y="838" type="qcurve" smooth="yes"/>
      <point x="201" y="162" type="line" smooth="yes"/>
      <point x="194" y="123"/>
      <point x="205" y="62"/>
      <point x="239" y="21"/>
      <point x="296" y="0"/>
      <point x="335" y="0" type="qcurve"/>
    </contour>
  </outline>
  <guideline angle="260.097" color="1,0,0,1" x="2041" y="-0"/>
</glyph>
<glyph name="uni0463" format="2">
  <advance width="2334"/>
  <unicode hex="0463"/>
  <outline>
    <contour>
      <point x="425" y="0" type="line"/>
      <point x="1759" y="0" type="line" smooth="yes"/>
      <point x="1798" y="0"/>
      <point x="1862" y="21"/>
      <point x="1910" y="62"/>
      <point x="1942" y="123"/>
      <point x="1949" y="162" type="qcurve" smooth="yes"/>
      <point x="2013" y="529" type="line" smooth="yes"/>
      <point x="2020" y="568"/>
      <point x="2010" y="629"/>
      <point x="1976" y="670"/>
      <point x="1919" y="691"/>
      <point x="1880" y="691" type="qcurve" smooth="yes"/>
      <point x="644" y="691" type="line" smooth="yes"/>
      <point x="618" y="691"/>
      <point x="588" y="683"/>
      <point x="579" y="675" type="qcurve"/>
      <point x="630" y="968" type="line"/>
      <point x="1432" y="968" type="line"/>
      <point x="1438" y="1000" type="line"/>
      <point x="636" y="1000" type="line"/>
      <point x="705" y="1400" type="line"/>
      <point x="669" y="1400" type="line"/>
      <point x="600" y="1000" type="line"/>
      <point x="380" y="1000" type="line"/>
      <point x="374" y="968" type="line"/>
      <point x="594" y="968" type="line"/>
    </contour>
    <contour>
      <point x="467" y="32" type="line"/>
      <point x="576" y="659" type="line"/>
      <point x="1864" y="659" type="line" smooth="yes"/>
      <point x="1930" y="659"/>
      <point x="1988" y="589"/>
      <point x="1976" y="523" type="qcurve" smooth="yes"/>
      <point x="1914" y="168" type="line" smooth="yes"/>
      <point x="1902" y="102"/>
      <point x="1821" y="32"/>
      <point x="1755" y="32" type="qcurve" smooth="yes"/>
    </contour>
  </outline>
  <guideline angle="0" color="1,0,0,1" x="0" y="300"/>
  <guideline angle="0" color="1,0,0,1" x="0" y="600"/>
</glyph>
<glyph name="uni0495" format="2">
  <advance width="1859"/>
  <unicode hex="0495"/>
  <outline>
    <contour>
      <point x="204" y="0" type="line"/>
      <point x="240" y="0" type="line"/>
      <point x="329" y="510" type="line"/>
      <point x="1371" y="510" type="line" smooth="yes"/>
      <point x="1438" y="510"/>
      <point x="1485" y="440"/>
      <point x="1473" y="374" type="qcurve" smooth="yes"/>
      <point x="1363" y="-260" type="line" smooth="yes"/>
      <point x="1351" y="-326"/>
      <point x="1280" y="-396"/>
      <point x="1213" y="-396" type="qcurve" smooth="yes"/>
      <point x="755" y="-396" type="line"/>
      <point x="759" y="-428" type="line"/>
      <point x="1207" y="-428" type="line" smooth="yes"/>
      <point x="1249" y="-428"/>
      <point x="1314" y="-407"/>
      <point x="1361" y="-366"/>
      <point x="1391" y="-305"/>
      <point x="1398" y="-266" type="qcurve" smooth="yes"/>
      <point x="1510" y="380" type="line" smooth="yes"/>
      <point x="1517" y="419"/>
      <point x="1509" y="480"/>
      <point x="1477" y="521"/>
      <point x="1419" y="542"/>
      <point x="1377" y="542" type="qcurve" smooth="yes"/>
      <point x="335" y="542" type="line"/>
      <point x="409" y="968" type="line"/>
      <point x="1561" y="968" type="line"/>
      <point x="1567" y="1000" type="line"/>
      <point x="379" y="1000" type="line"/>
    </contour>
  </outline>
  <guideline angle="260.106" color="1,0,0,1" x="825" y="-0"/>
</glyph>
<glyph name="uni04B9" format="2">
  <advance width="1936"/>
  <unicode hex="04B9"/>
  <outline>
    <contour>
      <point x="1470" y="0" type="line"/>
      <point x="1506" y="0" type="line"/>
      <point x="1681" y="1000" type="line"/>
      <point x="1645" y="1000" type="line"/>
      <point x="1546" y="433" type="line"/>
      <point x="940" y="433" type="line"/>
      <point x="989" y="717" type="line"/>
      <point x="957" y="717" type="line"/>
      <point x="908" y="433" type="line"/>
      <point x="432" y="433" type="line" smooth="yes"/>
      <point x="399" y="433"/>
      <point x="352" y="450"/>
      <point x="323" y="485"/>
      <point x="314" y="536"/>
      <point x="319" y="569" type="qcurve"/>
      <point x="395" y="1000" type="line"/>
      <point x="359" y="1000" type="line"/>
      <point x="282" y="562" type="line" smooth="yes"/>
      <point x="276" y="523"/>
      <point x="286" y="462"/>
      <point x="320" y="421"/>
      <point x="377" y="400"/>
      <point x="416" y="400" type="qcurve" smooth="yes"/>
      <point x="902" y="400" type="line"/>
      <point x="867" y="200" type="line"/>
      <point x="899" y="200" type="line"/>
      <point x="934" y="400" type="line"/>
      <point x="1540" y="400" type="line"/>
    </contour>
  </outline>
</glyph>
<glyph name="uni04F6" format="2">
  <advance width="2013"/>
  <unicode hex="04F6"/>
  <outline>
    <contour>
      <point x="230" y="0" type="line" name="ATT"/>
      <point x="295" y="0" type="line"/>
      <point x="250" y="-260" type="line"/>
      <point x="285" y="-260" type="line"/>
      <point x="336" y="36" type="line"/>
      <point x="276" y="36" type="line"/>
      <point x="508" y="1364" type="line"/>
      <point x="2129" y="1364" type="line"/>
      <point x="2135" y="1400" type="line"/>
      <point x="474" y="1400" type="line"/>
    </contour>
  </outline>
</glyph>
<glyph name="guilsinglleft" format="2">
  <advance width="658"/>
  <unicode hex="2039"/>
  <outline>
    <contour>
      <point x="384" y="130" type="line"/>
      <point x="426" y="130" type="line"/>
      <point x="139" y="500" type="line"/>
      <point x="555" y="870" type="line"/>
      <point x="513" y="870" type="line"/>
      <point x="97" y="500" type="line"/>
    </contour>
  </outline>
</glyph>
<glyph name="eth.sc" format="2">
  <advance width="2255.5"/>
  <anchor x="1421" y="1550" name="top"/>
  <anchor x="1124" y="-150" name="bottom"/>
  <outline>
    <contour>
      <point x="227.808" y="0" type="line"/>
      <point x="317.808" y="515" type="line"/>
      <point x="199.808" y="515" type="line"/>
      <point x="205.808" y="548" type="line"/>
      <point x="323.808" y="548" type="line"/>
      <point x="412.808" y="1060" type="line"/>
      <point x="1413.81" y="1060" type="line" smooth="yes"/>
      <point x="1578.81" y="1060"/>
      <point x="1821.81" y="1004"/>
      <point x="1971.81" y="878"/>
      <point x="2024.81" y="676"/>
      <point x="1998.81" y="530" type="qcurve" smooth="yes"/>
      <point x="1973.81" y="385"/>
      <point x="1850.81" y="183"/>
      <point x="1656.81" y="57"/>
      <point x="1393.81" y="0"/>
      <point x="1228.81" y="0" type="qcurve" smooth="yes"/>
    </contour>
    <contour>
      <point x="270.808" y="33" type="line"/>
      <point x="1234.81" y="33" type="line" smooth="yes"/>
      <point x="1393.81" y="33"/>
      <point x="1641.81" y="86"/>
      <point x="1821.81" y="205"/>
      <point x="1935.81" y="394"/>
      <point x="1959.81" y="530" type="qcurve" smooth="yes"/>
      <point x="1983.81" y="669"/>
      <point x="1934.81" y="859"/>
      <point x="1793.81" y="976"/>
      <point x="1563.81" y="1027"/>
      <point x="1407.81" y="1027" type="qcurve" smooth="yes"/>
      <point x="443.808" y="1027" type="line"/>
      <point x="360.808" y="548" type="line"/>
      <point x="978.808" y="548" type="line"/>
      <point x="972.808" y="515" type="line"/>
      <point x="354.808" y="515" type="line"/>
    </contour>
  </outline>
  <guideline angle="0" x="0" y="1549"/>
</glyph>
<glyph name="m.sc" format="2">
  <advance width="2513.05"/>
  <anchor x="1346.91" y="1210" name="top"/>
  <anchor x="1109.91" y="-150" name="bottom"/>
  <anchor x="221.907" y="530" name="left"/>
  <outline>
    <contour>
      <point x="228.907" y="0" type="line"/>
      <point x="265.907" y="0" type="line"/>
      <point x="441.907" y="1009" type="line"/>
      <point x="1184.91" y="273" type="line"/>
      <point x="2181.91" y="1009" type="line"/>
      <point x="2005.91" y="0" type="line"/>
      <point x="2042.91" y="0" type="line"/>
      <point x="2227.91" y="1060" type="line"/>
      <point x="2194.91" y="1060" type="line"/>
      <point x="1189.91" y="319" type="line"/>
      <point x="441.907" y="1060" type="line"/>
      <point x="413.907" y="1060" type="line"/>
      <point x="228.907" y="0" type="line"/>
    </contour>
  </outline>
</glyph>
<glyph name="x.sc" format="2">
  <advance width="1581.91"/>
  <outline>
    <contour>
      <point x="-118.093" y="0" type="line"/>
      <point x="-59.0934" y="0" type="line"/>
      <point x="761.907" y="521" type="line"/>
      <point x="1403.91" y="0" type="line"/>
      <point x="1461.91" y="0" type="line"/>
      <point x="794.907" y="541" type="line"/>
      <point x="1644.91" y="1060" type="line"/>
      <point x="1583.91" y="1060" type="line"/>
      <point x="766.907" y="561" type="line"/>
      <point x="126.907" y="1060" type="line"/>
      <point x="66.9066" y="1060" type="line"/>
      <point x="733.907" y="540" type="line"/>
    </contour>
  </outline>
</glyph>
